<?xml version="1.0" encoding="UTF-8" standalone="no"?>
<!-- Created with Inkscape (http://www.inkscape.org/) -->

<svg
   xmlns:osb="http://www.openswatchbook.org/uri/2009/osb"
   xmlns:dc="http://purl.org/dc/elements/1.1/"
   xmlns:cc="http://creativecommons.org/ns#"
   xmlns:rdf="http://www.w3.org/1999/02/22-rdf-syntax-ns#"
   xmlns:svg="http://www.w3.org/2000/svg"
   xmlns="http://www.w3.org/2000/svg"
   xmlns:sodipodi="http://sodipodi.sourceforge.net/DTD/sodipodi-0.dtd"
   xmlns:inkscape="http://www.inkscape.org/namespaces/inkscape"
   id="svg3039"
   version="1.1"
   inkscape:version="0.48.5 r10040"
   width="500"
   height="567"
   sodipodi:docname="pears.svg">
  <metadata
     id="metadata3045">
    <rdf:RDF>
      <cc:Work
         rdf:about="">
        <dc:format>image/svg+xml</dc:format>
        <dc:type
           rdf:resource="http://purl.org/dc/dcmitype/StillImage" />
        <dc:title></dc:title>
      </cc:Work>
    </rdf:RDF>
  </metadata>
  <defs
     id="defs3043">
    <linearGradient
       id="linearGradient5552"
       osb:paint="solid">
      <stop
         style="stop-color:#0000ff;stop-opacity:1;"
         offset="0"
         id="stop5554" />
    </linearGradient>
  </defs>
  <sodipodi:namedview
     pagecolor="#ffffff"
     bordercolor="#666666"
     borderopacity="1"
     objecttolerance="10"
     gridtolerance="10"
     guidetolerance="10"
     inkscape:pageopacity="0"
     inkscape:pageshadow="2"
     inkscape:window-width="1280"
     inkscape:window-height="719"
     id="namedview3041"
     showgrid="false"
     inkscape:zoom="0.8765432"
     inkscape:cx="208.8721"
     inkscape:cy="265.95433"
     inkscape:window-x="0"
     inkscape:window-y="24"
     inkscape:window-maximized="1"
     inkscape:current-layer="g4086" />
  <g
     id="g3049"
     transform="matrix(0.96235186,-0.27180672,0.27180672,0.96235186,-51.673338,58.089718)">
    <g
       transform="matrix(0.95994143,0.27112592,-0.27248923,0.96476834,0,0)"
       style="font-size:84.58316039999999703px;font-style:normal;font-variant:normal;font-weight:normal;font-stretch:normal;text-align:start;line-height:125%;letter-spacing:0px;word-spacing:0px;writing-mode:lr-tb;text-anchor:start;fill:#cc00ff;fill-opacity:1;stroke:#000000;font-family:Gentium Book Basic;-inkscape-font-specification:Gentium Book Basic;stroke-width:0.1;stroke-miterlimit:4;stroke-dasharray:none;stroke-opacity:1"
       id="text4059">
      <g
         id="g4086"
         transform="matrix(0.99637706,-0.0846201,0.08547324,0.99637706,-7.2291285,23.557577)"
         style="stroke-width:0.1;stroke-miterlimit:4;stroke-dasharray:none;stroke:#000000;stroke-opacity:1">
        <g
           id="g5743"
           transform="matrix(2.7311289,-0.11183523,0.16586508,2.499322,-456.85505,0.3758106)"
           inkscape:export-filename="/home/stultus/Desktop/pears_large.png"
           inkscape:export-xdpi="90"
           inkscape:export-ydpi="90">
          <g
             style="stroke:#000000;stroke-width:0.61381143;stroke-miterlimit:4;stroke-opacity:1;stroke-dasharray:none"
             transform="matrix(-0.25015902,-0.08980719,-0.09297737,0.23485156,360.02449,24.34808)"
             id="g4054">
            <path
               inkscape:connector-curvature="0"
               style="fill:#5599ff;stroke:#000000;stroke-width:0.61381143;stroke-miterlimit:4;stroke-opacity:1;stroke-dasharray:none"
               d="m 153.65306,146.30365 c 0,-0.55277 -0.26113,-1.00503 -0.58028,-1.00503 -0.77762,0 -1.33455,1.0463 -0.84187,1.5816 0.69449,0.75457 1.42215,0.45955 1.42215,-0.57657 z"
               id="path3949" />
            <g
               style="stroke:#000000;stroke-width:0.61381143;stroke-miterlimit:4;stroke-opacity:1;stroke-dasharray:none"
               transform="translate(-105.31949,80.460143)"
               id="g4065">
              <path
                 style="fill:#5599ff;stroke:#000000;stroke-width:0.61381143;stroke-miterlimit:4;stroke-opacity:1;stroke-dasharray:none"
                 d="m 285.51923,465.57125 c -19.24026,-1.99823 -43.82309,-15.10754 -60.04198,-32.01866 -5.97064,-6.22546 -14.29182,-17.07136 -16.72631,-21.8012 -5.23711,-10.17492 -8.90772,-26.61097 -8.93809,-40.02251 -0.031,-13.67608 2.73013,-30.11815 7.34339,-43.72922 3.29652,-9.72614 5.12254,-13.47709 11.44568,-23.51129 4.31689,-6.85049 12.82573,-22.37717 17.44108,-31.82596 1.77011,-3.62386 4.49224,-10.98216 6.32063,-17.08551 1.76632,-5.89618 4.02008,-13.16929 5.00836,-16.16247 0.98829,-2.99318 2.1985,-7.51582 2.68938,-10.05031 3.0247,-15.61729 10.17622,-27.88551 19.45319,-33.37144 2.7547,-1.62898 4.1011,-1.8387 10.98649,-1.71129 3.92307,0.0726 4.35165,-0.23033 2.85981,-2.02139 -1.34895,-1.61951 -1.41174,-1.54725 2.57342,-2.96148 3.71707,-1.31909 4.80509,-2.47626 4.29945,-4.57268 -0.20046,-0.83111 -0.0461,-2.46879 0.34299,-3.63928 0.56132,-1.68848 0.48382,-3.55727 -0.37507,-9.04527 -1.22728,-7.84189 -2.08556,-23.78739 -1.58689,-29.48213 0.47011,-5.36874 1.71748,-6.69735 6.0489,-6.44288 4.68013,0.27495 5.40864,1.55355 3.739,6.56222 -2.34353,7.03024 -2.52808,8.66382 -1.77885,15.74547 0.38988,3.68511 1.09093,8.50926 1.5579,10.72033 0.46697,2.21107 1.31386,6.23371 1.88201,8.93921 1.00051,4.76445 1.08376,4.90685 2.64855,4.53004 4.02701,-0.9697 11.61892,-1.11401 14.52478,-0.2761 2.44564,0.7052 3.12669,1.22244 3.47217,2.637 0.41644,1.70509 0.32795,1.77272 -2.85062,2.17862 -4.29835,0.54888 -6.83467,1.59492 -6.01818,2.48204 0.3419,0.37147 2.6765,0.85201 5.188,1.06786 2.5115,0.21584 5.79211,0.98647 7.29025,1.71249 1.96072,0.95021 3.40386,1.20191 5.15083,0.8984 2.35877,-0.40981 2.54206,-0.29406 6.52624,4.12124 7.30089,8.09091 13.52102,22.08702 15.26848,34.35609 0.51093,3.58725 2.7907,10.5428 4.83138,14.74044 0.80618,1.6583 1.93758,4.79114 2.51422,6.96188 0.57665,2.17073 1.56633,5.18582 2.1993,6.7002 0.63297,1.51438 1.15695,3.5883 1.1644,4.60873 0.0122,1.67707 -0.14432,1.81227 -1.62954,1.40726 -1.38607,-0.37798 -1.579,-0.26659 -1.23335,0.71205 0.22535,0.63807 0.40973,1.28621 0.40973,1.44033 0,0.15411 0.78797,0.28021 1.75104,0.28021 3.73353,0 4.33928,7.48178 0.71566,8.83944 -0.5138,0.19251 -1.90852,-0.60825 -3.13738,-1.80129 -1.76374,-1.71233 -2.60782,-2.08481 -4.16256,-1.83688 -1.85184,0.2953 -2.85412,2.15135 -1.17935,2.18397 0.42396,0.008 2.39358,0.87548 4.37692,1.92717 3.03383,1.60872 3.87964,1.79998 5.32996,1.20518 1.5005,-0.61537 1.99217,-0.46364 3.79404,1.17083 2.44156,2.21471 3.55987,4.15685 3.58998,6.23462 0.012,0.82915 0.29936,1.50754 0.63853,1.50754 0.33918,0 0.61668,0.90653 0.61668,2.01449 0,1.2958 0.53225,2.51732 1.49188,3.42388 0.82053,0.77516 1.67536,2.20364 1.8996,3.17441 0.57381,2.48402 1.33795,3.2953 3.58874,3.81015 1.07887,0.24679 2.70702,1.20869 3.61812,2.13755 0.91109,0.92886 2.2646,2.02774 3.0078,2.44195 0.82758,0.46123 1.98056,2.48782 2.97498,5.22908 0.89304,2.46178 2.20851,5.33537 2.92326,6.38575 3.18825,4.68537 4.60132,9.29577 6.83617,22.30427 0.85667,4.98646 1.07703,9.55809 1.01734,21.10565 -0.0781,15.10404 -0.15506,15.80426 -3.31456,30.1509 -1.34337,6.09998 -5.99188,17.16227 -11.28138,26.84685 -6.20146,11.3543 -16.33371,23.51748 -24.42426,29.31992 -20.57518,14.75626 -36.76787,20.0382 -60.66715,19.78922 -4.81989,-0.0502 -11.12223,-0.33628 -14.00519,-0.63569 z m 82.01792,-86.6785 c 0,-0.49159 -0.42676,-1.07173 -0.94836,-1.2892 -1.21656,-0.50722 -1.98975,1.53145 -0.8668,2.2855 1.00142,0.67245 1.81516,0.2258 1.81516,-0.9963 z m -32.98937,-7.36579 c 1.35824,-0.049 2.81762,-0.32297 3.24307,-0.60866 0.42546,-0.28569 1.33356,-0.32633 2.01801,-0.0903 0.9793,0.33771 2.30279,-0.70694 6.21179,-4.90306 4.60511,-4.94337 4.90786,-5.43567 4.15177,-6.75108 -0.44855,-0.78039 -1.02631,-1.41888 -1.2839,-1.41888 -0.25758,0 -0.46833,-0.60302 -0.46833,-1.34004 0,-1.46683 1.13322,-1.846 1.50188,-0.50252 0.74666,2.72099 0.99528,3.12784 1.72535,2.82345 0.44396,-0.1851 1.07886,-1.00917 1.41086,-1.83126 0.8316,-2.05912 3.16984,-2.27648 4.94936,-0.4601 1.4859,1.51668 3.36275,1.40821 3.36275,-0.19435 0,-0.48228 0.83168,-1.66978 1.84818,-2.6389 l 1.84819,-1.76204 -1.53383,-3.57982 c -0.8436,-1.9689 -1.53653,-4.2236 -1.53984,-5.01044 -0.01,-2.31578 -1.46328,-5.41106 -3.26348,-6.94959 -1.99313,-1.70342 -2.13304,-3.29214 -0.42946,-4.87696 1.13628,-1.05708 1.16872,-1.322 0.36693,-2.99649 -0.48376,-1.01029 -1.59969,-2.56784 -2.47985,-3.46123 -0.88015,-0.89339 -1.60028,-2.32556 -1.60028,-3.18259 0,-2.10874 2.51795,-2.08499 5.9644,0.0563 l 2.57268,1.59839 1.43328,-1.65763 c 1.19782,-1.38531 1.46973,-2.52978 1.65518,-6.96662 0.23466,-5.61444 0.23907,-5.60617 -2.84021,-5.33488 -1.78627,0.15737 -2.5852,-1.87374 -1.17708,-2.99246 1.27166,-1.01029 1.30081,-2.80156 0.0965,-5.93313 -0.51077,-1.32821 -0.85765,-2.7972 -0.77084,-3.26442 0.0966,-0.51977 -0.64198,-0.93277 -1.90276,-1.06402 -1.99373,-0.20757 -2.02565,-0.2565 -0.98361,-1.50755 0.59235,-0.71116 1.72775,-1.29302 2.52312,-1.29302 1.12208,0 1.44611,-0.36647 1.44611,-1.6355 0,-2.30479 -1.23095,-2.86907 -2.51125,-1.15119 -1.33342,1.78914 -2.18902,1.83186 -3.01714,0.15066 -0.89439,-1.81574 -0.8319,-2.00733 0.88609,-2.71701 3.4038,-1.40607 2.39005,-7.71235 -1.23977,-7.71235 -1.67142,0 -1.84284,0.21713 -2.02033,2.55914 l -0.19395,2.55912 -2.20289,-1.82557 c -1.67299,-1.38643 -2.443,-1.66265 -3.20103,-1.1483 -0.67283,0.45653 -1.39906,0.45598 -2.22823,-0.002 -0.67655,-0.37343 -1.64635,-0.88826 -2.15511,-1.14406 -0.54252,-0.27278 -1.00171,-1.57629 -1.1105,-3.15239 -0.14844,-2.15062 -0.50894,-2.84743 -1.80507,-3.48907 -1.34815,-0.6674 -1.70976,-0.62668 -2.15769,0.24297 -0.68317,1.32636 -2.56138,1.34731 -3.5602,0.0397 -1.19771,-1.56799 0.38073,-3.23387 2.60596,-2.75033 1.48061,0.32174 1.84624,0.10536 2.37492,-1.40548 0.77177,-2.2055 -0.0727,-4.70011 -2.40482,-7.10377 -2.23079,-2.29925 -7.69167,-2.82908 -8.01958,-0.77809 -0.56457,3.53123 -4.4233,3.28921 -4.4233,-0.27744 0,-2.36241 1.45511,-3.81268 5.30616,-5.2885 2.7025,-1.03567 3.01897,-1.3667 3.01897,-3.15784 0,-1.47225 0.32585,-2.06584 1.23335,-2.24673 0.67834,-0.13523 1.64961,-0.63951 2.15837,-1.12063 0.50875,-0.48112 1.59043,-0.97764 2.40372,-1.10336 2.12818,-0.329 3.0936,-2.24812 1.82456,-3.62694 -0.9123,-0.99121 -1.09464,-0.95937 -2.25485,0.39369 -1.8774,2.18947 -2.6546,1.1561 -2.21147,-2.94039 0.46464,-4.29528 -0.67118,-6.13578 -3.15368,-5.11029 -1.54407,0.63784 -3.39172,-0.54572 -3.39172,-2.17267 0,-0.40529 -0.45286,-1.28059 -1.00635,-1.9451 -0.82535,-0.99088 -0.87984,-1.54267 -0.30294,-3.06785 0.38688,-1.02281 0.58361,-3.6687 0.4372,-5.87977 -0.24211,-3.65601 -0.39382,-4.02012 -1.67512,-4.02012 -1.05387,0 -1.87456,0.88643 -3.25676,3.5176 -1.3171,2.50726 -2.22364,3.51761 -3.15619,3.51761 -1.55102,0 -3.64277,-2.25489 -4.57713,-4.93412 -0.59727,-1.71261 -0.55194,-1.86865 0.42142,-1.45055 2.27061,0.97532 5.11586,1.17346 5.95715,0.41485 1.81307,-1.63487 0.66824,-9.03666 -1.5141,-9.78922 -1.44587,-0.4986 -6.48136,2.51333 -6.30519,3.77138 0.13362,0.95418 -3.77104,3.2774 -5.50835,3.2774 -0.53094,0 -1.126,0.45487 -1.32236,1.01082 -0.19635,0.55596 -1.05856,1.35813 -1.91601,1.78261 -0.85744,0.42447 -1.55899,1.18509 -1.55899,1.69028 0,1.6877 1.6676,1.64059 4.04773,-0.11432 1.29629,-0.95579 2.75769,-1.65151 3.24755,-1.54605 1.4575,0.31379 1.95604,2.83326 0.96946,4.89938 -0.48863,1.02332 -0.72562,2.41793 -0.52663,3.09912 0.41566,1.42294 -0.34426,1.62721 -1.49179,0.401 -0.62899,-0.67212 -1.01788,-0.50672 -1.96912,0.83752 -0.65195,0.92128 -1.85575,2.42882 -2.67514,3.3501 -0.88486,0.9949 -1.60936,2.76329 -1.78426,4.35513 -0.16196,1.47405 -0.48323,3.30092 -0.71395,4.05971 -0.3252,1.06956 -0.0572,1.55897 1.19237,2.17757 0.88651,0.43886 2.36192,0.80255 3.27868,0.80819 2.2327,0.0137 3.02903,0.65446 3.53483,2.84404 0.26927,1.16564 0.83665,1.83584 1.55419,1.83584 1.61323,0 2.09791,1.23455 1.00301,2.5548 -0.51556,0.62168 -1.12296,1.93839 -1.34979,2.92604 -0.36174,1.57506 -0.10243,2.00833 2.11032,3.526 1.3875,0.95167 2.52274,2.19248 2.52274,2.75738 0,1.14865 -2.68188,4.31627 -3.65439,4.31627 -0.3449,0 -0.86214,0.9799 -1.14942,2.17756 -0.37714,1.57221 -0.87704,2.17757 -1.79823,2.17757 -0.70173,0 -1.79276,0.49761 -2.4245,1.10581 -0.63174,0.60819 -2.18926,1.57271 -3.46115,2.14338 -2.11501,0.94894 -2.31254,1.26128 -2.31254,3.6567 0,2.45553 0.18777,2.725 3.00575,4.31349 1.99282,1.12335 3.2917,1.49229 3.85423,1.09478 0.46666,-0.32976 2.27182,-0.4162 4.01147,-0.19209 2.0234,0.26066 3.31406,0.14189 3.58228,-0.32964 0.2306,-0.40541 0.96714,-0.7371 1.63674,-0.7371 1.84909,0 7.35975,3.25153 7.71111,4.54988 0.17046,0.6299 0.84927,2.2567 1.50847,3.61508 1.38643,2.857 1.06718,4.40986 -1.02386,4.98008 -1.86428,0.50865 -4.55255,-1.31878 -4.55255,-3.09446 0,-0.72004 -0.6982,-1.8062 -1.55156,-2.41371 -1.35374,-0.96373 -1.92374,-0.99528 -4.4709,-0.24744 -4.01702,1.17938 -5.08788,1.85274 -4.69873,2.95457 0.46064,1.30426 1.80003,1.81355 6.05361,2.30182 3.28712,0.37732 3.70134,0.59845 4.08977,2.18333 0.23772,0.96992 0.22235,2.13242 -0.0342,2.58334 -0.80046,1.40721 -5.95226,2.09383 -8.51434,1.13477 -1.72975,-0.6475 -2.94651,-0.67981 -5.013,-0.13314 -2.92486,0.77375 -3.94299,2.1074 -2.09974,2.75045 3.2564,1.13605 8.22224,4.57404 8.22224,5.69249 0,1.07488 -1.99278,2.6241 -3.37543,2.6241 -1.03412,0 -1.61357,0.5493 -2.06559,1.95815 -1.30034,4.05283 -5.39173,3.81822 -6.3888,-0.36634 -0.56149,-2.35652 -1.97566,-3.93483 -2.94339,-3.285 -1.06463,0.71489 -0.72659,3.41404 0.58966,4.70828 0.94031,0.92457 1.23336,2.06364 1.23336,4.79399 0,1.96969 -0.27751,3.58126 -0.61668,3.58126 -0.33917,0 -0.61668,0.89758 -0.61668,1.99462 0,1.37536 0.46733,2.3273 1.50527,3.06622 0.83865,0.59702 1.58968,1.86496 1.69586,2.86303 0.16892,1.58776 0.42044,1.76721 2.2123,1.57851 1.77551,-0.18699 2.10202,0.0374 2.6812,1.84255 0.67111,2.09167 1.6017,2.43086 3.93056,1.43263 1.08901,-0.4668 1.37769,-0.0496 2.4667,3.56469 0.95037,3.15418 1.63153,4.29865 2.96875,4.98805 2.04135,1.0524 2.54886,2.17503 2.01942,4.46699 -0.3196,1.38354 -0.75837,1.67354 -2.53208,1.67354 -1.89024,0 -2.36432,-0.37862 -3.98493,-3.18259 -1.01169,-1.75043 -1.84472,-3.54888 -1.85116,-3.99655 -0.006,-0.44767 -0.56671,-1.13668 -1.24506,-1.53112 -0.72123,-0.41938 -1.23335,-1.40291 -1.23335,-2.36865 0,-2.27214 -1.47142,-2.10103 -3.08338,0.35858 -0.86008,1.31237 -1.85051,2.01007 -2.85343,2.01007 -0.86703,0 -1.37008,0.29184 -1.15496,0.67002 0.20962,0.36851 0.87674,0.67002 1.4825,0.67002 1.37863,0 2.80418,1.73899 3.57014,4.35513 0.32574,1.11256 1.3254,2.40035 2.23884,2.88415 1.81804,0.96292 2.20442,3.10666 0.67487,3.74437 -0.5365,0.22369 -1.78527,0.4067 -2.77504,0.4067 -2.13024,0 -2.18918,0.25554 -0.57358,2.48712 0.80675,1.11432 1.19367,2.59052 1.13143,4.31656 -0.12558,3.48184 0.72057,4.35916 3.14983,3.26588 2.24146,-1.00876 6.9934,-0.41005 8.08469,1.0186 0.81343,1.06493 2.44161,1.32114 2.44161,0.38421 0,-0.32338 -0.41625,-0.96332 -0.92501,-1.42207 -0.51601,-0.4653 -0.92502,-1.92584 -0.92502,-3.3032 0,-2.24113 0.23014,-2.57941 2.4926,-3.66396 4.16765,-1.99782 5.6498,-0.36027 4.151,4.58621 -0.89602,2.95716 -0.89592,2.95769 0.91915,4.4157 1.52453,1.22463 1.75582,1.78115 1.44409,3.47466 -0.34241,1.86012 -0.26369,1.97636 1.01524,1.49903 0.76254,-0.2846 2.49771,-0.5576 3.85594,-0.60668 z m 2.15556,-3.25698 c -1.5276,-0.566 -2.21867,-1.26286 -2.36474,-2.38454 -0.35614,-2.73481 0.78287,-3.09651 3.86232,-1.22649 2.65301,1.61106 2.85694,1.64148 3.41457,0.5094 0.39433,-0.80054 0.34891,-1.90677 -0.13554,-3.30124 -0.61866,-1.78079 -0.56837,-2.27134 0.33323,-3.25093 1.00464,-1.09155 1.13166,-1.07779 2.3589,0.25561 1.81238,1.96915 1.16012,6.73099 -1.00278,7.3208 -0.79298,0.21624 -1.92147,0.96907 -2.50775,1.67295 -1.22489,1.47055 -1.11195,1.45901 -3.95821,0.40444 z m -3.36538,-11.13873 c -0.19514,-0.34305 -0.0728,-0.81311 0.27194,-1.04457 0.73593,-0.49417 1.86009,0.13305 1.86009,1.03782 0,0.81528 -1.66911,0.82057 -2.13203,0.007 z m 23.84674,-6.2021 c -1.52037,-1.65189 -0.55008,-3.61424 1.3876,-2.80636 0.58703,0.24475 0.9347,0.99867 0.82649,1.79225 -0.22703,1.66502 -1.2034,2.11222 -2.21409,1.01411 z m -9.71488,-3.26905 c -0.56756,-0.99776 0.0905,-1.54024 1.27119,-1.04796 0.54489,0.22718 0.81798,0.71669 0.60689,1.0878 -0.49987,0.87876 -1.36601,0.86038 -1.87808,-0.0399 z m 6.03795,-3.7767 c -0.95054,-0.38289 -1.01629,-2.63503 -0.095,-3.25369 0.37172,-0.24961 1.12495,0.0341 1.67384,0.6305 0.875,0.95068 0.8867,1.19826 0.095,2.009 -0.49664,0.50858 -1.24987,0.78497 -1.67383,0.61419 z m -33.43299,-6.18499 c -0.96447,-1.95803 -0.77256,-3.26897 0.59498,-4.06417 0.67835,-0.39444 1.23336,-1.17284 1.23336,-1.72978 0,-0.55694 0.83075,-1.52624 1.84613,-2.154 1.16064,-0.71757 1.84757,-1.68336 1.85003,-2.60105 0.006,-2.18335 1.70895,-3.66952 3.93547,-3.43415 1.58037,0.16707 1.96156,0.53081 2.1199,2.02288 0.16142,1.52106 -0.0912,1.88812 -1.54169,2.23984 -3.60601,0.87441 -3.77259,0.98711 -3.44865,2.33304 0.39171,1.62745 -0.81765,3.32322 -2.36999,3.32322 -0.85701,0 -1.15785,0.48746 -1.15785,1.87606 0,1.79274 -0.94744,3.4841 -1.95167,3.4841 -0.2594,0 -0.75891,-0.5832 -1.11002,-1.29599 z m 28.96208,-0.73509 c 0,-0.38009 0.41626,-0.8646 0.92502,-1.07672 0.50876,-0.21212 0.92501,-0.96589 0.92501,-1.67505 0,-1.72966 1.71408,-2.35221 2.90719,-1.0559 1.30551,1.41844 0.56387,3.15867 -1.34615,3.15867 -0.85857,0 -1.56104,0.30151 -1.56104,0.67002 0,0.36851 -0.41625,0.67002 -0.92501,0.67002 -0.50876,0 -0.92502,-0.31097 -0.92502,-0.69104 z m -35.05958,-5.13878 c -0.39752,-0.77176 -1.31143,-1.11736 -2.831,-1.07056 -1.72001,0.053 -2.46694,-0.30061 -3.19885,-1.51428 -0.52518,-0.87086 -1.45521,-1.75592 -2.06674,-1.9668 -1.33963,-0.46196 -2.89436,-4.17659 -2.10438,-5.02785 0.50018,-0.53898 4.76242,-1.88564 7.00687,-2.21384 0.61167,-0.0894 1.11166,0.88663 1.54169,3.00969 0.36463,1.80014 1.36072,3.96195 2.3323,5.06181 1.8193,2.05948 2.28125,4.86151 0.80149,4.86151 -0.4919,0 -1.15853,-0.51285 -1.48138,-1.13968 z m 26.23732,-7.99904 c -0.21689,-0.23566 -0.24397,-0.69284 -0.0602,-1.01596 0.39417,-0.69295 1.48231,-0.0954 1.48231,0.81394 0,0.72034 -0.83581,0.83906 -1.42214,0.20202 z m 8.94167,-2.63818 c -2.07165,-1.57655 -1.72072,-3.39769 0.83104,-4.3127 1.20109,-0.43068 2.58861,-0.61429 3.08338,-0.408 1.0666,0.4447 1.22297,3.76722 0.1773,3.76722 -0.39726,0 -1.17604,0.44616 -1.73063,0.99148 -0.89087,0.87596 -1.16594,0.87153 -2.36109,-0.038 z m -16.97522,-3.41022 c -0.22611,-0.24567 -0.41112,-1.1502 -0.41112,-2.01006 0,-1.29401 0.32211,-1.56338 1.86938,-1.56338 2.10634,0 3.001,1.48295 1.82416,3.02362 -0.78853,1.03232 -2.56453,1.3298 -3.28242,0.54982 z m 23.72882,-2.45115 c -1.15172,-1.50778 -0.18121,-3.23624 1.68507,-3.00109 1.26376,0.15923 1.61708,0.56973 1.61708,1.8788 0,1.9505 -2.11932,2.67079 -3.30215,1.12229 z m -7.75397,-3.51522 c -1.21237,-1.31724 -1.21749,-1.90913 -0.0258,-2.9837 0.72127,-0.65038 1.30184,-0.67307 2.46671,-0.0964 1.82404,0.90298 1.97589,2.4827 0.33062,3.4394 -1.54266,0.89701 -1.62508,0.88633 -2.77154,-0.3593 z m -26.25278,-3.30224 c -0.61248,-0.80183 -0.61248,-1.20824 0,-2.01006 0.42223,-0.55277 1.11599,-1.00503 1.54169,-1.00503 0.42569,0 1.11946,0.45226 1.54169,1.00503 0.61247,0.80182 0.61247,1.20823 0,2.01006 -0.42223,0.55276 -1.116,1.00503 -1.54169,1.00503 -0.4257,0 -1.11946,-0.45227 -1.54169,-1.00503 z m 8.21828,-2.74098 c -0.48087,-1.36153 1.36969,-5.63427 2.44024,-5.63427 1.13795,0 2.29167,1.39224 2.29167,2.76545 0,1.1325 -2.70812,3.93475 -3.80257,3.93475 -0.30407,0 -0.72228,-0.47967 -0.92934,-1.06593 z m 21.99884,-1.61415 c 0,-0.36851 0.27751,-0.67002 0.61668,-0.67002 0.33917,0 0.61668,0.30151 0.61668,0.67002 0,0.36851 -0.27751,0.67002 -0.61668,0.67002 -0.33917,0 -0.61668,-0.30151 -0.61668,-0.67002 z m -6.16676,-5.36016 c 0,-0.36851 0.12238,-0.67002 0.27195,-0.67002 0.14956,0 0.44345,0.30151 0.65307,0.67002 0.20962,0.36851 0.0872,0.67002 -0.27194,0.67002 -0.35919,0 -0.65308,-0.30151 -0.65308,-0.67002 z m -10.89307,-2.39011 c -0.20397,-0.57754 -0.11097,-1.33244 0.20667,-1.67756 0.77877,-0.84613 2.99411,0.94508 2.4191,1.95596 -0.63348,1.11366 -2.19249,0.94836 -2.62577,-0.2784 z m 6.268,-4.31009 c -0.20962,-0.36852 0.0515,-0.67002 0.58028,-0.67002 0.52878,0 0.96141,0.3015 0.96141,0.67002 0,0.36851 -0.26112,0.67002 -0.58028,0.67002 -0.31915,0 -0.75179,-0.30151 -0.96141,-0.67002 z m 7.7017,-2.17757 c -1.44081,-2.56751 -1.51757,-3.1826 -0.39716,-3.1826 1.22581,0 2.87062,2.23771 2.87062,3.90538 0,2.09972 -1.06404,1.78879 -2.47346,-0.72278 z m -15.2791,0.0419 c -1.15699,-1.25707 -0.88773,-1.99924 0.6398,-1.76353 0.76313,0.11776 1.38752,0.64124 1.38752,1.1633 0,1.27564 -1.10467,1.6027 -2.02732,0.60023 z m 5.40388,-3.57932 c -0.5986,-0.78367 -0.61948,-1.41445 -0.0887,-2.68009 0.54496,-1.29953 1.1561,-1.65521 2.84401,-1.65521 2.71857,0 3.82058,1.77083 2.43733,3.91653 -1.09931,1.70525 -4.02942,1.94155 -5.19261,0.41877 z m -25.31146,-8.07657 c -1.08164,-1.41604 -0.002,-3.29394 1.89293,-3.29394 1.89539,0 2.97456,1.8779 1.89293,3.29394 -0.44583,0.58366 -1.29765,1.06119 -1.89293,1.06119 -0.59529,0 -1.44711,-0.47753 -1.89293,-1.06119 z m 9.12647,-2.08603 c -1.40932,-2.7113 -0.73473,-6.08218 1.06687,-5.33104 0.75301,0.31395 0.97393,1.08127 0.83308,2.89342 -0.17812,2.29157 -1.25662,3.67527 -1.89995,2.43762 z m -1.56012,-17.7574 c -0.40701,-0.44222 -0.74002,-1.19599 -0.74002,-1.67505 0,-1.2299 1.81272,-1.08627 2.25961,0.17904 0.50968,1.44309 -0.58049,2.51634 -1.51959,1.49601 z m 4.90025,-4.77309 c -0.49475,-0.64771 -0.48185,-1.09955 0.0479,-1.67505 1.48604,-1.61458 3.29937,-0.55993 2.57306,1.49653 -0.45782,1.29623 -1.70237,1.381 -2.62089,0.17852 z m 1.78805,-4.77127 c -0.91657,-1.19994 -0.37819,-3.2903 0.74297,-2.88471 0.97957,0.35437 1.37527,2.45872 0.61721,3.28235 -0.35863,0.38965 -0.87385,0.23903 -1.36018,-0.39764 z m -17.91181,-7.07214 c 0,-0.73702 0.24353,-1.34004 0.54117,-1.34004 0.80867,0 1.97591,1.73199 1.50907,2.23921 -0.84425,0.91729 -2.05024,0.38838 -2.05024,-0.89917 z m -4.68047,123.3811 c 0.17915,-0.31494 -0.35948,-1.27203 -1.19696,-2.12685 -1.86198,-1.90055 -2.0305,-4.98484 -0.33522,-6.13514 1.15462,-0.78345 1.14609,-0.85916 -0.30833,-2.73717 -0.82269,-1.06229 -1.49581,-2.47439 -1.49581,-3.13802 0,-0.66363 -0.41625,-1.58194 -0.92501,-2.0407 -0.79199,-0.71414 -0.92502,-0.49998 -0.92502,1.48917 0,2.58907 -1.23088,4.12162 -3.85422,4.7988 -2.35861,0.60885 -2.11894,1.42285 0.79145,2.68809 1.36801,0.59472 2.63447,1.60736 2.81434,2.25031 0.96144,3.43665 2.35994,5.52414 3.70086,5.52414 0.77451,0 1.55477,-0.25769 1.73392,-0.57263 z m -13.41892,-10.15149 c 0.0656,-1.89525 -0.15941,-2.67629 -0.77084,-2.67629 -1.07462,0 -1.16729,3.42194 -0.12339,4.55614 0.407,0.44221 0.75388,0.80232 0.77084,0.80023 0.017,-0.002 0.0725,-1.20812 0.12339,-2.68008 z m 6.14068,-7.73186 c 1.33606,-0.29015 3.32525,-4.70529 3.32525,-7.38063 0,-0.73483 0.44456,-2.02567 0.98791,-2.86851 0.54335,-0.84285 0.89024,-1.58833 0.77085,-1.65663 -0.11939,-0.0683 -1.04959,-0.58595 -2.0671,-1.15034 -1.97104,-1.09329 -2.85468,-4.18047 -1.5899,-5.55465 1.07246,-1.16524 0.78297,-2.23309 -1.18514,-4.37144 -1.84317,-2.00261 -2.40558,-4.34108 -1.23336,-5.12823 1.43683,-0.96482 0.51151,-2.80358 -2.10622,-4.18539 -1.4976,-0.79052 -2.89594,-2.02967 -3.10743,-2.75365 -0.94402,-3.23164 -5.64062,-4.27962 -4.90484,-1.09445 0.20648,0.89384 -0.0604,2.233 -0.63496,3.18567 -0.88199,1.46253 -0.88861,1.73608 -0.0601,2.48314 0.93558,0.84363 1.64412,0.69072 3.48178,-0.75139 0.80242,-0.6297 1.42468,-0.42206 3.23755,1.08029 1.23432,1.0229 2.24318,2.05016 2.24191,2.28281 -10e-4,0.23264 -0.5522,1.40289 -1.22429,2.60055 -1.43038,2.54894 -3.15227,2.80365 -4.52944,0.67003 -0.83229,-1.28946 -1.06483,-1.36216 -1.60747,-0.50252 -1.05806,1.6762 -0.73562,3.42188 0.88841,4.80985 2.12902,1.81955 1.99681,4.33146 -0.36749,6.98181 l -1.90918,2.14016 3.27152,0.7623 c 5.83882,1.36053 7.0159,4.19648 3.34587,8.06131 -1.1739,1.23621 -2.00636,2.47269 -1.84991,2.74774 0.26361,0.46342 3.78194,0.25321 6.8258,-0.40783 z m -15.50971,-11.74124 c -0.5799,-1.01946 -1.50643,-0.70805 -1.12304,0.37747 0.19448,0.55065 0.60655,0.83132 0.91572,0.62372 0.30916,-0.20761 0.40246,-0.65814 0.20732,-1.00119 z m -2.74871,-3.89253 c 0,-0.82946 -3.49482,-2.30824 -4.25258,-1.79941 -0.34482,0.23154 -0.47064,0.8636 -0.27958,1.40457 0.37407,1.05913 4.53216,1.42138 4.53216,0.39484 z m 87.56801,-0.62286 c 0,-0.25881 -1.04064,-0.8267 -2.31254,-1.26198 -2.22,-0.75972 -3.74154,-0.29455 -3.04453,0.9308 0.39785,0.69941 5.35707,1.006 5.35707,0.33118 z M 248.18516,322.6698 c 0.53032,-1.6384 0.41423,-2.08458 -0.82642,-3.17609 -0.79388,-0.69845 -1.99857,-1.26991 -2.67708,-1.26991 -1.09128,0 -1.18379,0.29 -0.80151,2.51257 0.78145,4.54344 3.12021,5.59379 4.30501,1.93343 z m 31.47565,0.24414 c 0.66654,-1.17177 -0.32188,-2.16193 -1.28826,-1.29053 -0.47856,0.43152 -0.87011,1.04918 -0.87011,1.37257 0,0.80777 1.68873,0.74357 2.15837,-0.082 z m 0.92501,-8.07979 c 0,-0.39026 -0.2775,-0.52321 -0.61668,-0.29546 -0.33917,0.22775 -0.61667,0.54706 -0.61667,0.70956 0,0.16251 0.2775,0.29547 0.61667,0.29547 0.33918,0 0.61668,-0.31931 0.61668,-0.70957 z m 13.84913,-5.94479 c 0.34242,-0.60197 -1.9064,-2.72592 -2.88618,-2.72592 -0.79376,0 -0.53887,2.54236 0.29139,2.90636 1.25755,0.55132 2.21647,0.48464 2.59479,-0.18044 z m -16.05361,-5.30659 c 2.76858,-0.71963 2.72278,-2.05765 -0.067,-1.95789 -1.29447,0.0463 -2.97933,-0.14042 -3.74414,-0.41493 -1.00087,-0.35922 -1.49545,-0.2021 -1.76485,0.56067 -0.55427,1.56934 0.9726,3.22948 2.49565,2.71349 0.70204,-0.23785 2.0882,-0.64344 3.08035,-0.90134 z m 15.46302,-2.19122 c 0,-0.52626 -0.67743,-0.95161 -1.57532,-0.98911 -1.39634,-0.0584 -1.5456,0.15424 -1.31369,1.87101 0.24482,1.8123 0.3461,1.87589 1.57532,0.98912 0.72253,-0.52124 1.31369,-1.3632 1.31369,-1.87102 z m -14.09521,-3.61191 c 0.46426,-1.3145 -0.84266,-3.00656 -2.32222,-3.00656 -1.30268,0 -1.45858,0.81758 -0.51947,2.72412 0.7612,1.54535 2.34022,1.70228 2.84169,0.28244 z m 84.70462,-3.30203 c 0,-0.53102 -0.25834,-1.13895 -0.57407,-1.35097 -0.73316,-0.49232 -1.47053,0.76233 -0.96762,1.64644 0.56707,0.9969 1.54169,0.81011 1.54169,-0.29547 z m -13.04669,-27.09959 c -0.0298,-4.93782 -0.1307,-5.3333 -1.53841,-6.03018 -1.82748,-0.90468 -6.17297,-0.98511 -6.66317,-0.12333 -0.43291,0.76105 0.89847,6.72229 1.79264,8.02648 0.59463,0.86732 5.00993,3.36248 6.01063,3.39671 0.23662,0.008 0.41586,-2.36326 0.39831,-5.26968 z m -104.73844,-0.41078 c 0,-0.55277 -0.26113,-1.00503 -0.58028,-1.00503 -0.77762,0 -1.33455,1.0463 -0.84187,1.5816 0.69449,0.75456 1.42215,0.45956 1.42215,-0.57657 z m 62.9415,-3.03866 c 1.60342,-0.93235 1.50169,-1.61848 -0.3779,-2.54896 -2.25578,-1.11671 -2.74602,-0.97643 -2.74602,0.78581 0,2.4979 0.94402,3.03071 3.12392,1.76315 z m 33.00673,-6.34162 c 0.26769,-1.15885 0.80977,-1.67505 1.759,-1.67505 1.75949,0 2.13429,-0.43957 1.74696,-2.04885 -0.44756,-1.85951 -2.42445,-1.63845 -2.87726,0.32174 -0.25286,1.09463 -1.07765,1.87498 -2.53356,2.39703 -2.21918,0.79575 -2.74418,1.64178 -1.38779,2.23644 1.81004,0.79354 2.92086,0.37815 3.29265,-1.23131 z m -33.97229,-3.57344 c 0,-1.31162 -1.20161,-1.20047 -1.43797,0.133 -0.14425,0.81381 0.0679,1.14488 0.60823,0.94919 0.45636,-0.16527 0.82974,-0.65226 0.82974,-1.08219 z m -49.37727,-2.04581 c 0.18587,-0.32676 -0.0506,-0.94442 -0.52538,-1.37258 -0.96123,-0.86676 -1.94554,0.12922 -1.28146,1.29666 0.47188,0.82956 1.35699,0.86676 1.80684,0.0759 z m 21.31851,-3.13056 c 0,-0.1625 -0.2775,-0.29546 -0.61668,-0.29546 -0.33917,0 -0.61667,0.3193 -0.61667,0.70956 0,0.39026 0.2775,0.52322 0.61667,0.29547 0.33918,-0.22775 0.61668,-0.54706 0.61668,-0.70957 z m -6.59958,-13.44895 c 0.70269,-0.76347 -0.81673,-2.92699 -2.05558,-2.92699 -1.47906,0 -1.52601,0.52211 -0.19106,2.1248 1.08189,1.2989 1.61446,1.48906 2.24664,0.80219 z m 66.72819,-4.94178 c 0.2111,-0.37112 -0.062,-0.86063 -0.60688,-1.08781 -1.18071,-0.49228 -1.83875,0.0502 -1.2712,1.04796 0.51208,0.90022 1.37822,0.9186 1.87808,0.0399 z m -31.11905,-16.79813 c 0.82026,-1.66524 0.36989,-3.29775 -0.90975,-3.29775 -1.17645,0 -2.30917,2.25972 -1.82289,3.63658 0.52365,1.48264 1.92077,1.3094 2.73264,-0.33883 z m 10.76605,-3.44239 c 0.67834,-0.0468 1.85773,0.13769 2.62087,0.40995 1.00894,0.35996 1.38752,0.23086 1.38752,-0.47313 0,-2.27788 -2.61287,-2.77887 -6.32093,-1.21198 -2.03565,0.8602 -2.28689,2.27618 -0.30834,1.73779 0.76314,-0.20766 1.94253,-0.41584 2.62088,-0.46263 z m -47.7924,-9.23564 c 0,-0.36851 -0.2775,-0.67002 -0.61668,-0.67002 -0.33917,0 -0.61667,0.30151 -0.61667,0.67002 0,0.36851 0.2775,0.67002 0.61667,0.67002 0.33918,0 0.61668,-0.30151 0.61668,-0.67002 z m 15.4169,-6.03018 c 0,-0.36851 -0.41625,-0.67002 -0.92501,-0.67002 -0.50876,0 -0.92502,0.30151 -0.92502,0.67002 0,0.36851 0.41626,0.67002 0.92502,0.67002 0.50876,0 0.92501,-0.30151 0.92501,-0.67002 z m -31.14214,-16.14453 c -7.28797,-1.17524 -19.54916,-6.28406 -27.11816,-11.29923 -1.02609,-0.67988 -3.76203,-1.86662 -6.07987,-2.63721 -4.86622,-1.61783 -6.8908,-3.15209 -8.83584,-6.69594 -1.45126,-2.64416 -4.9685,-5.62692 -7.60855,-6.45234 -0.84793,-0.26511 -2.79046,-1.91939 -4.31674,-3.67619 -2.28188,-2.62653 -3.36576,-3.32907 -6.09905,-3.95322 -2.04868,-0.46782 -4.1781,-1.53773 -5.55009,-2.78858 -7.07666,-6.45184 -8.12023,-7.59612 -7.9535,-8.72102 0.0975,-0.65805 -0.91825,-2.75939 -2.2573,-4.66963 -2.32812,-3.3212 -2.38368,-3.51367 -1.26966,-4.39873 0.64075,-0.50905 1.59759,-0.93514 2.12631,-0.94686 0.52873,-0.0117 1.49999,-0.46398 2.15837,-1.00503 0.65838,-0.54105 1.81216,-0.98372 2.56396,-0.98372 1.686,0 7.68962,-3.27054 8.69004,-4.73399 0.40381,-0.59071 3.45636,-2.50609 6.78343,-4.25639 3.32708,-1.7503 6.49108,-3.43143 7.0311,-3.73584 2.21034,-1.24595 12.32769,-2.83881 17.51842,-2.75806 7.62656,0.11863 9.50632,0.3738 12.15955,1.65059 1.261,0.60682 2.6624,1.10331 3.11421,1.10331 0.45182,0 1.10549,0.30856 1.4526,0.6857 0.34711,0.37714 1.28413,0.82234 2.08226,0.98935 0.79814,0.167 1.73516,0.6122 2.08227,0.98934 0.34711,0.37714 1.08761,0.68571 1.64555,0.68571 0.55794,0 1.51671,0.60301 2.13061,1.34004 0.61389,0.73702 1.47075,1.34004 1.90413,1.34004 0.43338,0 4.34357,3.84424 8.68933,8.54275 7.45168,8.05657 10.68186,12.16143 10.68186,13.57435 0,0.33932 0.76314,1.60735 1.69586,2.81783 2.11497,2.74479 3.92784,6.85956 5.69277,12.92119 2.94045,10.09894 3.22131,11.85654 2.83049,17.71323 -0.20746,3.10909 -0.5189,5.80683 -0.69207,5.99498 -0.17317,0.18814 -1.17055,-0.20711 -2.2164,-0.87835 -1.14466,-0.73465 -2.05759,-0.96059 -2.29356,-0.5676 -1.05988,1.76506 -8.6144,4.57093 -13.65055,5.07004 -1.86545,0.18488 -5.05675,0.0677 -7.09178,-0.26052 z"
                 id="path3081"
                 inkscape:connector-curvature="0" />
              <path
                 inkscape:connector-curvature="0"
                 id="path3061"
                 d="m 257.74679,178.91097 c -7.28797,-1.17524 -19.54916,-6.28405 -27.11816,-11.29922 -1.02609,-0.67988 -3.76203,-1.86662 -6.07987,-2.63721 -4.86621,-1.61783 -6.89079,-3.15209 -8.83583,-6.69594 -1.45126,-2.64416 -4.9685,-5.62692 -7.60855,-6.45234 -0.84793,-0.26512 -2.79046,-1.91939 -4.31674,-3.67619 -2.28188,-2.62653 -3.36576,-3.32907 -6.09905,-3.95322 -2.04868,-0.46782 -4.1781,-1.53773 -5.55009,-2.78858 -7.07666,-6.45185 -8.12023,-7.59613 -7.9535,-8.72103 0.0975,-0.65805 -0.91825,-2.75939 -2.2573,-4.66963 -2.32812,-3.3212 -2.38368,-3.51367 -1.26966,-4.39873 0.64075,-0.50905 1.59759,-0.93514 2.12631,-0.94686 0.52873,-0.0117 1.49999,-0.46398 2.15837,-1.00503 0.65838,-0.54105 1.81216,-0.98372 2.56396,-0.98372 1.686,0 7.68962,-3.27054 8.69004,-4.73399 0.40381,-0.59071 3.45636,-2.50609 6.78343,-4.25639 3.32708,-1.7503 6.49108,-3.43143 7.0311,-3.73584 2.21034,-1.24595 12.32768,-2.83881 17.51841,-2.75806 7.62656,0.11863 9.50632,0.3738 12.15955,1.65059 1.261,0.60682 2.6624,1.10331 3.11421,1.10331 0.45182,0 1.10549,0.30856 1.4526,0.6857 0.34711,0.37714 1.28413,0.82234 2.08226,0.98935 0.79814,0.167 1.73516,0.6122 2.08227,0.98934 0.34711,0.37714 1.08761,0.68571 1.64555,0.68571 0.55794,0 1.51671,0.60301 2.13061,1.34004 0.61389,0.73702 1.47075,1.34004 1.90413,1.34004 0.43338,0 4.34357,3.84424 8.68933,8.54275 7.45168,8.05657 10.68186,12.16143 10.68186,13.57435 0,0.33932 0.76314,1.60735 1.69586,2.81783 2.11497,2.7448 3.92784,6.85957 5.69277,12.9212 2.94045,10.09894 3.22131,11.85654 2.83049,17.71323 -0.20746,3.10909 -0.5189,5.80682 -0.69207,5.99497 -0.17317,0.18814 -1.17055,-0.20711 -2.2164,-0.87834 -1.14466,-0.73465 -2.05759,-0.96059 -2.29356,-0.56761 -1.05988,1.76506 -8.6144,4.57093 -13.65055,5.07004 -1.86545,0.18488 -5.05675,0.0677 -7.09178,-0.26052 z"
                 style="fill:#00aa00;stroke:#000000;stroke-width:0.61381143;stroke-miterlimit:4;stroke-opacity:1;stroke-dasharray:none" />
            </g>
          </g>
          <path
             d="m 191.23025,111.20415 -0.0154,-2.55212 c 2.33237,-0.43642 4.13228,-0.90789 5.39976,-1.41445 1.26725,-0.53865 1.89954,-1.03269 1.89684,-1.48213 l -0.30914,-51.331292 c -1.30394,0.153294 -2.57343,0.322773 -3.80849,0.50844 -1.20092,0.153867 -2.36739,0.32392 -3.49942,0.510161 l -0.58749,-3.470187 c 1.71446,-0.407698 3.60081,-0.782395 5.65904,-1.124095 2.05824,-0.341578 4.18544,-0.634681 6.38163,-0.879309 2.19617,-0.244505 4.42707,-0.424676 6.69271,-0.540515 2.26542,-0.147815 4.47982,-0.215725 6.64323,-0.203728 3.81165,0.02131 7.24782,0.409622 10.3085,1.164944 3.09495,0.755635 5.74566,1.861844 7.95213,3.31863 2.20638,1.456902 3.89973,3.247947 5.08009,5.37314 1.21458,2.125489 1.83022,4.568597 1.8469,7.329332 0.0133,2.215089 -0.31793,4.235606 -0.99365,6.061558 -0.64148,1.826221 -1.52444,3.458451 -2.64889,4.896695 -1.09021,1.438503 -2.35313,2.699455 -3.78877,3.782852 -1.43592,1.051369 -2.94154,1.925751 -4.51686,2.62316 -1.57539,0.697479 -3.16898,1.218259 -4.78077,1.562364 -1.57753,0.344342 -3.07022,0.512573 -4.47812,0.504702 -1.57963,-0.0088 -3.09124,-0.129622 -4.53483,-0.362335 -1.40949,-0.264643 -2.69943,-0.640988 -3.86986,-1.129058 l -1.36388,-4.100485 c 1.44591,0.618005 2.78755,1.026746 4.02496,1.226225 1.23716,0.167426 2.45669,0.254472 3.6586,0.261148 1.54525,0.0086 3.12322,-0.255421 4.73391,-0.792195 1.64479,-0.568622 3.13352,-1.394945 4.46623,-2.478984 1.33242,-1.116077 2.4057,-2.506487 3.21984,-4.17124 0.84819,-1.696588 1.26544,-3.684524 1.25177,-5.963816 -0.0151,-2.50392 -0.50893,-4.67349 -1.48141,-6.508718 -0.93842,-1.867039 -2.23533,-3.399066 -3.89074,-4.596085 -1.65567,-1.229013 -3.61843,-2.138781 -5.88828,-2.729308 -2.23557,-0.590222 -4.64107,-0.892539 -7.2165,-0.906952 -1.61398,-0.0089 -3.21047,0.03031 -4.78948,0.117758 L 208.29819,105.81 c 0.001,0.19262 0.12264,0.40195 0.36433,0.628 0.27606,0.22625 0.74109,0.4696 1.3951,0.73005 0.68832,0.26065 1.59986,0.52254 2.73462,0.78567 1.16907,0.26332 2.64731,0.54443 4.43473,0.8433 l 0.0154,2.55212 -26.01212,-0.14499"
             style="fill:#8a6f91;stroke:#000000;stroke-width:0.12058503;stroke-miterlimit:4;stroke-opacity:1;stroke-dasharray:none"
             id="path4078"
             inkscape:connector-curvature="0" />
          <path
             d="m 227.9521,92.184284 c 1.37669,3e-5 2.62947,0.27537 3.75833,0.826 1.10136,0.52318 2.06503,1.28035 2.89102,2.27152 0.82603,0.96371 1.51436,2.13389 2.06502,3.510535 0.52315,1.376711 0.89486,2.891051 1.11511,4.543041 l -16.35494,0 c -0.63325,3e-5 -1.04625,-0.0963 -1.23901,-0.2891 -0.22024,-0.22025 -0.33038,-0.61948 -0.33041,-1.19771 3e-5,-0.77092 0.11017,-1.70706 0.33041,-2.808431 0.22029,-1.101315 0.6333,-2.161355 1.23901,-3.180125 0.57823,-1.01871 1.39047,-1.88602 2.43672,-2.60192 1.0463,-0.71584 2.40921,-1.07378 4.08874,-1.07381 m -15.90065,12.183606 c 0.49564,0.55069 1.22528,1.10137 2.18892,1.65202 0.96371,0.52315 1.88608,0.96369 2.76713,1.32161 l 20.98059,0 c -0.0275,2.09257 -0.31663,4.07498 -0.86731,5.94725 -0.55066,1.84476 -1.3216,3.45548 -2.31282,4.83214 -0.9912,1.37669 -2.18891,2.47803 -3.59314,3.30403 -1.43172,0.79848 -3.04244,1.19772 -4.83214,1.19771 -0.85352,1e-5 -1.67952,-0.0551 -2.47802,-0.1652 -0.82598,-0.11013 -1.70706,-0.34416 -2.64323,-0.7021 -0.93611,-0.38547 -1.98238,-0.93614 -3.13882,-1.65202 -1.15638,-0.71586 -2.51929,-1.67954 -4.08874,-2.89102 -0.3579,0.19274 -0.70207,0.52314 -1.03251,0.9912 -0.33037,0.46808 -0.5644,0.81225 -0.70211,1.03251 1.87232,1.98243 3.52434,3.57937 4.95605,4.79085 1.43178,1.21148 2.79469,2.16138 4.08874,2.84972 1.26657,0.66081 2.53311,1.10135 3.79963,1.32161 1.23903,0.22027 2.60194,0.33041 4.08874,0.33041 2.2027,0 4.29525,-0.45431 6.27765,-1.36291 1.9549,-0.93615 3.67575,-2.24399 5.16255,-3.92354 1.48682,-1.67954 2.67076,-3.70326 3.55183,-6.07115 0.88108,-2.36788 1.32162,-5.0111 1.32161,-7.92968 1e-5,-1.84473 -0.19273,-3.64817 -0.5782,-5.41034 -0.413,-1.76213 -0.99121,-3.41414 -1.73462,-4.956051 -0.77093,-1.541845 -1.70707,-2.973595 -2.80842,-4.295235 -1.10134,-1.32158 -2.36788,-2.47799 -3.79964,-3.46923 -0.66079,-0.46804 -1.39043,-0.90857 -2.18892,-1.32162 -0.79846,-0.41296 -1.62446,-0.7709 -2.47802,-1.0738 -0.88106,-0.33037 -1.7759,-0.59194 -2.68452,-0.78471 -0.90859,-0.1927 -1.7759,-0.28906 -2.60193,-0.2891 -1.78966,4e-5 -3.40037,0.23407 -4.83214,0.7021 -1.43172,0.46811 -2.68449,1.11515 -3.75833,1.94112 -1.10132,0.79851 -2.02369,1.74842 -2.76713,2.84973 -0.7709,1.10137 -1.39041,2.27155 -1.85852,3.51053 -0.49556,1.23904 -0.8535,2.519345 -1.0738,3.840936 -0.22024,1.32163 -0.33037,2.61571 -0.33041,3.88223"
             id="path4080"
             inkscape:connector-curvature="0"
             style="fill:#8a6f91;stroke:#000000;stroke-width:0.1;stroke-miterlimit:4;stroke-opacity:1;stroke-dasharray:none" />
          <path
             d="m 307.37214,97.240402 c -0.37871,-0.05217 -0.76989,-0.09633 -1.17351,-0.132501 -0.3787,-0.05217 -0.76986,-0.09633 -1.17349,-0.1325 l -2.00275,14.384319 c 0.58814,0.17859 1.10363,0.3082 1.54651,0.38873 0.44283,0.0806 0.90931,0.15462 1.39941,0.22218 3.36371,0.46367 5.99516,0.15336 7.89436,-0.93093 1.92139,-1.08119 3.05402,-2.85638 3.39783,-5.32556 0.13856,-0.9953 0.066,-1.94169 -0.2177,-2.83918 -0.2588,-0.91351 -0.77994,-1.73641 -1.56341,-2.4687 -0.78087,-0.751368 -1.83786,-1.394521 -3.17101,-1.929465 -1.33053,-0.554022 -2.97592,-0.966152 -4.93624,-1.2364 m -18.22563,32.573165 0.21187,-1.5217 c 1.5521,-0.0592 2.76156,-0.18507 3.62844,-0.37771 0.86954,-0.21178 1.32295,-0.45167 1.36027,-0.71964 l 4.25333,-30.548714 c -0.81529,-0.0148 -1.63056,-0.02964 -2.44582,-0.04451 -0.79302,-0.01174 -1.58601,-0.0235 -2.379,-0.0353 l -0.0797,-2.117873 c 1.12352,-0.07919 2.26666,-0.136211 3.42941,-0.171053 1.1654,-0.05391 2.37137,-0.07301 3.61789,-0.05729 1.27146,-2.76e-4 2.59327,0.04537 3.96547,0.136934 1.37216,0.09164 2.81565,0.24184 4.33047,0.450607 2.73998,0.37772 5.07063,0.923323 6.99195,1.636811 1.92127,0.713553 3.47331,1.55175 4.6561,2.514585 1.18274,0.962897 2.01136,2.023263 2.4859,3.181093 0.47713,1.13875 0.63043,2.32061 0.4599,3.54559 -0.18924,1.35902 -0.59504,2.56137 -1.21738,3.60703 -0.60013,1.04877 -1.37358,1.95658 -2.32038,2.72342 -0.94684,0.76689 -2.0434,1.3863 -3.28968,1.85827 -1.24635,0.47199 -2.58539,0.79462 -4.01713,0.9679 l 8.38344,14.87957 c 0.27815,0.44802 0.57812,0.821 0.89995,1.11897 0.34401,0.30103 0.72948,0.54923 1.15639,0.74463 0.45177,0.17933 0.9548,0.31695 1.50909,0.41285 0.57647,0.099 1.24744,0.17195 2.01287,0.21891 l 0.18911,1.57698 c -0.76449,0.10921 -1.54987,0.20579 -2.35615,0.28972 -0.80636,0.0839 -1.58774,0.1518 -2.34414,0.20361 -0.7342,0.0549 -1.42963,0.0761 -2.08626,0.0636 -0.63709,0.01 -1.16725,-0.0146 -1.59048,-0.0729 -0.64605,-0.0891 -1.25959,-0.32969 -1.84066,-0.72192 -0.55886,-0.38917 -0.96356,-0.82536 -1.2141,-1.30858 l -7.70153,-17.33135 c -0.26999,-0.0177 -0.55112,-0.0369 -0.84336,-0.0577 -0.26733,-0.0368 -0.53465,-0.0737 -0.80194,-0.11054 -0.57921,-0.0798 -1.15573,-0.17879 -1.72957,-0.29696 -0.5712,-0.13728 -1.16068,-0.30628 -1.76841,-0.50713 l -1.96676,14.12591 c -0.032,0.2297 0.31787,0.57055 1.04957,1.02255 0.73437,0.43287 1.89598,0.89536 3.48486,1.3875 l -0.21186,1.52168 -15.87192,-2.1878"
             style="font-size:72px;fill:#8a6f91;stroke:#000000;stroke-width:0.1;stroke-miterlimit:4;stroke-opacity:1;stroke-dasharray:none"
             id="path4082"
             inkscape:connector-curvature="0" />
          <path
             d="m 351.79504,111.88903 c -3e-5,1.23902 -0.179,2.50557 -0.5369,3.79963 -0.33044,1.29409 -0.85358,2.5744 -1.56942,3.84094 -0.68837,1.23901 -1.55568,2.42296 -2.60192,3.55183 -1.04631,1.10134 -2.28532,2.06502 -3.71703,2.89102 -1.40424,0.82601 -3.00119,1.48682 -4.79085,1.98242 -1.76217,0.4956 -3.73082,0.74341 -5.90595,0.74341 -0.93616,0 -1.98243,-0.0964 -3.13883,-0.2891 -1.12889,-0.19274 -2.29906,-0.46808 -3.51053,-0.82601 -1.18395,-0.33041 -2.3679,-0.74341 -3.55183,-1.23901 -1.15642,-0.49561 -2.21646,-1.06004 -3.18013,-1.69332 -0.19274,-0.11013 -0.34417,-0.60573 -0.4543,-1.48681 -0.0826,-0.88107 -0.12391,-1.91358 -0.1239,-3.09753 -1e-5,-1.18394 0.0551,-2.39541 0.1652,-3.63443 0.11013,-1.26654 0.2891,-2.32658 0.5369,-3.18013 l 2.10632,0.2065 c 0.63327,1.62449 1.41797,3.05624 2.35412,4.29524 0.93613,1.23902 1.96864,2.28529 3.09753,3.13883 1.1564,0.82601 2.39541,1.45928 3.71703,1.89981 1.3216,0.41301 2.68451,0.61951 4.08874,0.61951 1.23899,0 2.46423,-0.22026 3.67573,-0.66081 1.21146,-0.46806 2.29903,-1.10133 3.26273,-1.89981 0.99118,-0.826 1.77589,-1.78968 2.35412,-2.89103 0.60571,-1.12887 0.90858,-2.35411 0.90861,-3.67573 -3e-5,-1.67954 -0.37173,-3.12505 -1.11511,-4.33654 -0.74343,-1.21146 -1.72087,-2.28527 -2.93232,-3.22143 -1.21151,-0.96365 -2.58818,-1.81719 -4.13004,-2.56062 -1.5419,-0.77092 -3.12508,-1.52809 -4.74954,-2.27152 -1.6245,-0.74338 -3.20768,-1.52809 -4.74955,-2.354129 -1.54189,-0.853513 -2.91857,-1.817187 -4.13003,-2.891026 -1.21149,-1.101312 -2.18893,-2.381622 -2.93233,-3.840935 -0.74341,-1.459244 -1.11512,-3.193857 -1.11511,-5.203847 -10e-6,-1.294037 0.31663,-2.712015 0.94991,-4.253938 0.63326,-1.569368 1.63824,-3.028647 3.01493,-4.377839 1.37666,-1.37663 3.15258,-2.519272 5.32774,-3.427931 2.20267,-0.908555 4.87343,-1.362859 8.01228,-1.362912 1.32158,5.3e-5 2.64319,0.09642 3.96483,0.289102 1.32159,0.192788 2.54683,0.454357 3.67573,0.784707 1.12885,0.330455 2.14759,0.729692 3.05623,1.197711 0.90858,0.468121 1.61068,0.977492 2.10632,1.528114 0.1927,0.165251 0.1927,0.536954 0,1.11511 -0.19277,0.550719 -0.48187,1.170224 -0.86731,1.858516 -0.3855,0.660852 -0.81227,1.307891 -1.28031,1.941118 -0.4681,0.633316 -0.86734,1.101387 -1.19771,1.404213 l -1.89982,-0.247803 c -0.7159,-1.018698 -1.48684,-1.886005 -2.31282,-2.601923 -0.82603,-0.715826 -1.66581,-1.280264 -2.51932,-1.693315 -0.85357,-0.440489 -1.72087,-0.757125 -2.60192,-0.949909 -0.85357,-0.192686 -1.66581,-0.289053 -2.43673,-0.289102 -1.48683,4.9e-5 -2.75337,0.220317 -3.79963,0.660806 -1.04629,0.413051 -1.9136,0.963722 -2.60192,1.652014 -0.68836,0.660852 -1.19773,1.404258 -1.52812,2.23022 -0.30288,0.826051 -0.45431,1.624524 -0.4543,2.395422 -10e-6,1.294119 0.37169,2.450528 1.11511,3.469231 0.74339,0.991247 1.72083,1.913621 2.93233,2.767125 1.23899,0.826042 2.62943,1.624515 4.17133,2.395422 1.5694,0.770972 3.16634,1.569445 4.79085,2.395421 1.65198,0.798504 3.24893,1.679578 4.79084,2.643224 1.56938,0.936173 2.95983,2.009983 4.17134,3.221433 1.23897,1.2115 2.23018,2.60195 2.97362,4.17134 0.74337,1.5419 1.11508,3.33158 1.11511,5.36905"
             style="fill:#8a6f91;stroke:#000000;stroke-width:0.1;stroke-miterlimit:4;stroke-opacity:1;stroke-dasharray:none"
             id="path4084"
             inkscape:connector-curvature="0" />
        </g>
      </g>
    </g>
  </g>
</svg>
